<mxfile host="app.diagrams.net" modified="2023-04-12T14:19:43.454Z" agent="Mozilla/5.0 (Macintosh; Intel Mac OS X 10.15; rv:109.0) Gecko/20100101 Firefox/111.0" etag="fpK_nF7Y7HBrC5EaHJow" version="21.1.7" type="google">
  <diagram name="Pagina-1" id="jes0yLsWGSmlrCkCVqd8">
    <mxGraphModel grid="1" page="1" gridSize="10" guides="1" tooltips="1" connect="1" arrows="1" fold="1" pageScale="1" pageWidth="827" pageHeight="1169" math="0" shadow="0">
      <root>
        <mxCell id="0" />
        <mxCell id="1" parent="0" />
        <mxCell id="nGfnpEqgeOyEyDAaNg2_-1" value="" style="edgeStyle=orthogonalEdgeStyle;rounded=0;orthogonalLoop=1;jettySize=auto;html=1;" edge="1" parent="1" source="nGfnpEqgeOyEyDAaNg2_-2" target="nGfnpEqgeOyEyDAaNg2_-4">
          <mxGeometry relative="1" as="geometry" />
        </mxCell>
        <mxCell id="nGfnpEqgeOyEyDAaNg2_-2" value="Start" style="ellipse;whiteSpace=wrap;html=1;" vertex="1" parent="1">
          <mxGeometry x="360" y="20" width="120" height="80" as="geometry" />
        </mxCell>
        <mxCell id="nGfnpEqgeOyEyDAaNg2_-3" value="" style="edgeStyle=orthogonalEdgeStyle;rounded=0;orthogonalLoop=1;jettySize=auto;html=1;" edge="1" parent="1" source="nGfnpEqgeOyEyDAaNg2_-4">
          <mxGeometry relative="1" as="geometry">
            <mxPoint x="420" y="230" as="targetPoint" />
          </mxGeometry>
        </mxCell>
        <mxCell id="nGfnpEqgeOyEyDAaNg2_-4" value="int prodotto = 1" style="rounded=0;whiteSpace=wrap;html=1;" vertex="1" parent="1">
          <mxGeometry x="360" y="130" width="120" height="60" as="geometry" />
        </mxCell>
        <mxCell id="nGfnpEqgeOyEyDAaNg2_-5" value="Start" style="ellipse;whiteSpace=wrap;html=1;" vertex="1" parent="1">
          <mxGeometry x="590" y="740" width="120" height="80" as="geometry" />
        </mxCell>
        <mxCell id="nGfnpEqgeOyEyDAaNg2_-6" value="" style="edgeStyle=orthogonalEdgeStyle;rounded=0;orthogonalLoop=1;jettySize=auto;html=1;" edge="1" parent="1" source="nGfnpEqgeOyEyDAaNg2_-7" target="nGfnpEqgeOyEyDAaNg2_-11">
          <mxGeometry relative="1" as="geometry" />
        </mxCell>
        <mxCell id="nGfnpEqgeOyEyDAaNg2_-7" value="numero=1" style="rounded=0;whiteSpace=wrap;html=1;" vertex="1" parent="1">
          <mxGeometry x="360" y="230" width="120" height="60" as="geometry" />
        </mxCell>
        <mxCell id="nGfnpEqgeOyEyDAaNg2_-8" value="" style="edgeStyle=orthogonalEdgeStyle;rounded=0;orthogonalLoop=1;jettySize=auto;html=1;" edge="1" parent="1" source="nGfnpEqgeOyEyDAaNg2_-11" target="nGfnpEqgeOyEyDAaNg2_-16">
          <mxGeometry relative="1" as="geometry" />
        </mxCell>
        <mxCell id="nGfnpEqgeOyEyDAaNg2_-9" style="edgeStyle=orthogonalEdgeStyle;rounded=0;orthogonalLoop=1;jettySize=auto;html=1;" edge="1" parent="1" source="nGfnpEqgeOyEyDAaNg2_-11" target="nGfnpEqgeOyEyDAaNg2_-20">
          <mxGeometry relative="1" as="geometry" />
        </mxCell>
        <mxCell id="nGfnpEqgeOyEyDAaNg2_-10" value="F" style="edgeLabel;html=1;align=center;verticalAlign=middle;resizable=0;points=[];" connectable="0" vertex="1" parent="nGfnpEqgeOyEyDAaNg2_-9">
          <mxGeometry x="-0.7169" y="3" relative="1" as="geometry">
            <mxPoint as="offset" />
          </mxGeometry>
        </mxCell>
        <mxCell id="nGfnpEqgeOyEyDAaNg2_-11" value="numero!=-1" style="rhombus;whiteSpace=wrap;html=1;" vertex="1" parent="1">
          <mxGeometry x="360" y="320" width="120" height="110" as="geometry" />
        </mxCell>
        <mxCell id="nGfnpEqgeOyEyDAaNg2_-12" value="" style="edgeStyle=orthogonalEdgeStyle;rounded=0;orthogonalLoop=1;jettySize=auto;html=1;" edge="1" parent="1" source="nGfnpEqgeOyEyDAaNg2_-13" target="nGfnpEqgeOyEyDAaNg2_-19">
          <mxGeometry relative="1" as="geometry" />
        </mxCell>
        <mxCell id="nGfnpEqgeOyEyDAaNg2_-13" value="prodotto+=numero" style="rounded=0;whiteSpace=wrap;html=1;" vertex="1" parent="1">
          <mxGeometry x="360" y="450" width="120" height="60" as="geometry" />
        </mxCell>
        <mxCell id="nGfnpEqgeOyEyDAaNg2_-14" value="" style="edgeStyle=orthogonalEdgeStyle;rounded=0;orthogonalLoop=1;jettySize=auto;html=1;" edge="1" parent="1" source="nGfnpEqgeOyEyDAaNg2_-15" target="nGfnpEqgeOyEyDAaNg2_-18">
          <mxGeometry relative="1" as="geometry" />
        </mxCell>
        <mxCell id="nGfnpEqgeOyEyDAaNg2_-15" value="Scrivi un numero" style="shape=parallelogram;perimeter=parallelogramPerimeter;whiteSpace=wrap;html=1;fixedSize=1;" vertex="1" parent="1">
          <mxGeometry x="360" y="540" width="120" height="60" as="geometry" />
        </mxCell>
        <mxCell id="nGfnpEqgeOyEyDAaNg2_-16" value="O" style="text;html=1;align=center;verticalAlign=middle;resizable=0;points=[];autosize=1;strokeColor=none;fillColor=none;" vertex="1" parent="1">
          <mxGeometry x="455" y="515" width="30" height="30" as="geometry" />
        </mxCell>
        <mxCell id="nGfnpEqgeOyEyDAaNg2_-17" style="edgeStyle=orthogonalEdgeStyle;rounded=0;orthogonalLoop=1;jettySize=auto;html=1;entryX=0;entryY=0.5;entryDx=0;entryDy=0;" edge="1" parent="1" source="nGfnpEqgeOyEyDAaNg2_-18" target="nGfnpEqgeOyEyDAaNg2_-11">
          <mxGeometry relative="1" as="geometry">
            <Array as="points">
              <mxPoint x="420" y="730" />
              <mxPoint x="210" y="730" />
              <mxPoint x="210" y="375" />
            </Array>
          </mxGeometry>
        </mxCell>
        <mxCell id="nGfnpEqgeOyEyDAaNg2_-18" value="numero" style="shape=parallelogram;perimeter=parallelogramPerimeter;whiteSpace=wrap;html=1;fixedSize=1;" vertex="1" parent="1">
          <mxGeometry x="360" y="625" width="120" height="60" as="geometry" />
        </mxCell>
        <mxCell id="nGfnpEqgeOyEyDAaNg2_-19" value="I" style="text;html=1;align=center;verticalAlign=middle;resizable=0;points=[];autosize=1;strokeColor=none;fillColor=none;" vertex="1" parent="1">
          <mxGeometry x="450" y="600" width="30" height="30" as="geometry" />
        </mxCell>
        <mxCell id="nGfnpEqgeOyEyDAaNg2_-23" value="" style="edgeStyle=orthogonalEdgeStyle;rounded=0;orthogonalLoop=1;jettySize=auto;html=1;" edge="1" parent="1" source="nGfnpEqgeOyEyDAaNg2_-20" target="nGfnpEqgeOyEyDAaNg2_-5">
          <mxGeometry relative="1" as="geometry" />
        </mxCell>
        <mxCell id="nGfnpEqgeOyEyDAaNg2_-20" value="prodotto" style="shape=parallelogram;perimeter=parallelogramPerimeter;whiteSpace=wrap;html=1;fixedSize=1;" vertex="1" parent="1">
          <mxGeometry x="590" y="650" width="120" height="60" as="geometry" />
        </mxCell>
        <mxCell id="nGfnpEqgeOyEyDAaNg2_-21" value="o" style="text;html=1;align=center;verticalAlign=middle;resizable=0;points=[];autosize=1;strokeColor=none;fillColor=none;" vertex="1" parent="1">
          <mxGeometry x="685" y="625" width="30" height="30" as="geometry" />
        </mxCell>
        <mxCell id="nGfnpEqgeOyEyDAaNg2_-22" value="V" style="text;html=1;align=center;verticalAlign=middle;resizable=0;points=[];autosize=1;strokeColor=none;fillColor=none;" vertex="1" parent="1">
          <mxGeometry x="414" y="420" width="30" height="30" as="geometry" />
        </mxCell>
      </root>
    </mxGraphModel>
  </diagram>
</mxfile>
